<svg version="1.1" id="Layer_1" xmlns="http://www.w3.org/2000/svg" xmlns:xlink="http://www.w3.org/1999/xlink" x="0px" y="0px"
	 width="100%" viewBox="0 0 256 256" enable-background="new 0 0 256 256" xml:space="preserve">
<path fill="#000000" opacity="1.000000" stroke="none" 
	d="
M122.000000,257.000000 
	C81.333336,257.000000 41.166672,257.000000 1.000005,257.000000 
	C1.000004,171.666672 1.000004,86.333351 1.000002,1.000017 
	C86.333321,1.000011 171.666641,1.000011 257.000000,1.000006 
	C257.000000,86.333313 257.000000,171.666626 257.000000,256.999969 
	C212.166672,257.000000 167.333328,257.000000 122.000000,257.000000 
M110.882172,103.305557 
	C124.445724,94.668289 140.488083,96.023827 151.154907,106.650558 
	C160.960388,116.419212 164.914597,133.756500 153.033722,149.673370 
	C165.775925,160.627350 178.533676,171.594696 191.650269,182.870529 
	C191.650269,143.514420 191.650269,104.962479 191.650269,66.473320 
	C152.898468,66.473320 114.431252,66.473320 75.303314,66.473320 
	C86.005287,79.064545 96.194023,91.122864 106.533928,103.050133 
	C107.190712,103.807739 109.022278,103.546898 110.882172,103.305557 
M66.066963,147.499985 
	C66.066963,162.238846 66.066963,176.977707 66.066963,191.550873 
	C103.050499,191.550873 139.348068,191.550873 176.215469,191.550873 
	C165.747452,179.320145 155.711105,167.593750 145.720795,155.921143 
	C132.537186,162.558167 119.804588,162.509323 108.725128,152.881866 
	C95.701866,141.565323 94.768356,127.368240 101.928513,112.303856 
	C90.087540,102.015266 78.491058,91.939117 66.066963,81.143860 
	C66.066963,103.708649 66.066963,125.104309 66.066963,147.499985 
z"/>
<path fill="#FCFCFC" opacity="1.000000" stroke="none" 
	d="
M110.594749,103.532700 
	C109.022278,103.546898 107.190712,103.807739 106.533928,103.050133 
	C96.194023,91.122864 86.005287,79.064545 75.303314,66.473320 
	C114.431252,66.473320 152.898468,66.473320 191.650269,66.473320 
	C191.650269,104.962479 191.650269,143.514420 191.650269,182.870529 
	C178.533676,171.594696 165.775925,160.627350 153.033722,149.673370 
	C164.914597,133.756500 160.960388,116.419212 151.154907,106.650558 
	C140.488083,96.023827 124.445724,94.668289 110.594749,103.532700 
z"/>
<path fill="#FDFDFD" opacity="1.000000" stroke="none" 
	d="
M66.066963,146.999969 
	C66.066963,125.104309 66.066963,103.708649 66.066963,81.143860 
	C78.491058,91.939117 90.087540,102.015266 101.928513,112.303856 
	C94.768356,127.368240 95.701866,141.565323 108.725128,152.881866 
	C119.804588,162.509323 132.537186,162.558167 145.720795,155.921143 
	C155.711105,167.593750 165.747452,179.320145 176.215469,191.550873 
	C139.348068,191.550873 103.050499,191.550873 66.066963,191.550873 
	C66.066963,176.977707 66.066963,162.238846 66.066963,146.999969 
z"/>
</svg>