<?xml version="1.0" standalone="no"?>
<!DOCTYPE svg PUBLIC "-//W3C//DTD SVG 20010904//EN"
 "http://www.w3.org/TR/2001/REC-SVG-20010904/DTD/svg10.dtd">
<svg version="1.0" xmlns="http://www.w3.org/2000/svg"
 width="1024.000000pt" height="270.000000pt" viewBox="0 0 1024.000000 270.000000"
 preserveAspectRatio="xMidYMid meet">

<g transform="translate(0.000000,270.000000) scale(0.100000,-0.100000)"
fill="#000000" stroke="none">
<path d="M0 1350 l0 -1350 5120 0 5120 0 0 1350 0 1350 -5120 0 -5120 0 0
-1350z m3262 120 c2 -550 1 -1000 -2 -1000 -3 0 -137 132 -299 294 l-294 294
37 57 c58 86 79 155 84 271 5 122 -8 192 -54 284 -157 313 -548 402 -834 190
l-35 -26 -314 318 -314 318 1011 0 1012 0 2 -1000z m3346 783 l3 -93 84 0 85
0 0 -85 0 -85 -85 0 -85 0 0 -175 c0 -173 0 -176 25 -200 20 -21 34 -25 85
-25 l60 0 0 -79 c0 -63 -3 -80 -16 -85 -27 -10 -189 -7 -225 5 -48 16 -96 54
-116 92 -15 27 -18 68 -21 250 l-4 217 -59 0 -59 0 0 85 0 85 60 0 60 0 0 88
c0 49 3 91 6 94 3 4 49 5 102 5 l97 -2 3 -92z m-4900 -598 c2 -2 -6 -33 -17
-70 -65 -210 -16 -410 139 -566 85 -86 177 -139 288 -165 92 -22 224 -14 314
19 l66 24 299 -299 298 -298 -983 0 -982 0 0 969 0 969 288 -290 c158 -159
288 -291 290 -293z m2640 510 c69 -21 129 -69 166 -135 l31 -55 3 -277 3 -278
-105 0 -106 0 0 236 c0 257 -5 285 -58 320 -38 25 -124 24 -159 -2 -58 -43
-63 -66 -63 -321 l0 -233 -105 0 -105 0 0 370 0 370 105 0 105 0 0 -47 0 -47
28 31 c29 31 76 60 122 74 40 12 83 10 138 -6z m818 -16 c136 -51 214 -175
214 -341 l0 -68 -261 0 -261 0 7 -37 c9 -50 37 -94 73 -115 46 -27 138 -24
196 7 41 22 60 25 142 25 l95 0 -16 -31 c-29 -56 -87 -109 -154 -141 -61 -30
-73 -33 -171 -33 -97 0 -110 2 -171 31 -117 56 -180 142 -201 278 -48 313 216
534 508 425z m2164 -74 l0 -105 -55 0 c-75 0 -129 -24 -157 -69 -22 -34 -23
-47 -26 -258 l-3 -223 -105 0 -104 0 0 370 0 370 105 0 105 0 0 -56 0 -56 33
44 c39 52 106 88 164 88 l43 0 0 -105z m526 94 c261 -48 390 -329 261 -572
-54 -104 -152 -168 -283 -186 -206 -30 -372 66 -434 250 -18 53 -21 80 -18
154 8 143 70 250 179 310 94 51 184 64 295 44z m940 -20 c24 -12 62 -41 84
-66 64 -73 70 -103 70 -398 l1 -260 -100 -3 -100 -3 -3 244 c-3 264 -6 275
-64 314 -37 24 -117 22 -152 -3 -57 -43 -62 -66 -62 -321 l0 -233 -105 0 -105
0 0 370 0 371 103 -3 102 -3 -3 -42 c-2 -24 0 -43 3 -43 4 0 18 14 32 30 65
78 192 99 299 49z m-3104 -226 c3 -201 6 -243 20 -269 48 -87 206 -83 250 6
16 30 18 66 18 268 l0 232 105 0 105 0 0 -370 0 -370 -105 0 -105 0 0 46 0 47
-43 -40 c-70 -65 -157 -82 -260 -54 -57 16 -129 77 -160 135 -21 39 -22 54
-25 324 l-3 282 100 0 100 0 3 -237z m-1222 -1098 l0 -485 -60 0 -60 0 0 40 0
40 -41 -29 c-95 -69 -226 -79 -333 -27 -256 125 -257 531 -1 657 54 26 75 31
137 31 84 0 146 -19 201 -63 l37 -30 0 176 0 175 60 0 60 0 0 -485z m600 209
c100 -32 187 -124 222 -236 24 -79 23 -143 -4 -224 -28 -85 -103 -170 -186
-211 -50 -25 -68 -28 -152 -28 -76 0 -105 5 -143 22 -70 32 -149 113 -183 186
-25 54 -29 74 -29 152 0 77 4 98 27 147 80 172 264 251 448 192z m810 -10 c30
-14 72 -42 93 -62 37 -35 77 -99 77 -122 0 -6 -25 -10 -60 -10 -33 0 -60 4
-60 9 0 20 -56 75 -95 92 -56 26 -147 25 -202 -2 -176 -85 -176 -383 0 -468
94 -45 221 -18 274 58 28 40 29 40 90 41 l61 0 -11 -32 c-20 -54 -93 -125
-165 -160 -59 -29 -76 -33 -147 -33 -71 0 -88 4 -147 33 -77 38 -128 91 -166
172 -22 47 -26 69 -26 155 -1 87 2 107 25 155 84 179 281 254 459 174z m579
25 c86 -18 165 -84 177 -148 l7 -31 -54 0 c-46 0 -56 3 -64 22 -20 44 -61 63
-135 63 -82 0 -120 -22 -134 -78 -7 -28 -6 -41 8 -62 22 -33 57 -48 166 -70
153 -31 219 -81 228 -175 8 -91 -33 -161 -122 -208 -44 -22 -64 -26 -141 -27
-97 0 -163 21 -213 68 -31 29 -62 90 -62 122 0 24 3 25 54 25 48 0 55 -3 61
-22 4 -13 19 -35 33 -51 83 -88 282 -41 282 68 0 52 -31 78 -110 94 -239 47
-290 85 -290 210 0 95 61 171 158 197 60 16 89 17 151 3z"/>
<path d="M4967 2006 c-21 -8 -48 -22 -59 -33 -20 -17 -48 -72 -48 -93 0 -6 57
-10 160 -10 149 0 160 1 160 19 0 10 -10 33 -23 51 -42 63 -122 91 -190 66z"/>
<path d="M7705 1986 c-141 -52 -165 -287 -37 -370 96 -63 212 -33 264 67 30
58 30 156 0 214 -42 81 -142 120 -227 89z"/>
<path d="M4080 941 c-120 -37 -176 -128 -168 -270 8 -140 80 -221 203 -229 82
-5 128 11 180 62 49 49 70 112 68 201 -1 73 -19 120 -68 174 -52 57 -143 84
-215 62z"/>
<path d="M4843 915 c-82 -46 -123 -120 -123 -221 0 -103 48 -187 133 -229 68
-33 127 -33 196 1 144 72 177 284 62 407 -65 71 -186 90 -268 42z"/>
</g>
</svg>
